<?xml version="1.0" encoding="UTF-8"?>
<!-- Generator: visioncortex VTracer 0.6.4 -->
<svg version="1.1" xmlns="http://www.w3.org/2000/svg" width="18" height="21">
<path d="M0,0 L16,0 L16,4 L17,4 L17,5 L16,5 L16,19 L0,19 L0,15 L-1,15 L-1,14 L0,14 Z " fill="#474747" transform="translate(1,1)"/>
<path d="M0,0 L9,0 L9,1 L2,1 L2,2 L1,2 L1,9 L0,9 Z M-9,10 L-8,10 L-8,11 L-9,11 Z M-6,15 L8,15 L8,16 L-6,16 Z " fill="#000000" opacity="0.92941177" transform="translate(9,5)"/>
<path d="M0,0 L14,0 L14,2 L7,2 L7,3 L6,3 L6,12 L0,12 Z " fill="#7F7F7F" transform="translate(2,2)"/>
<path d="M0,0 L5,0 L5,12 L-9,12 L-9,10 L-1,10 L-1,9 L0,9 Z " fill="#7F7F7F" transform="translate(11,7)"/>
<path d="M0,0 L6,0 L6,14 L-10,14 L-10,11 L-9,11 L-9,13 L5,13 L5,1 L0,1 Z M-1,1 L0,1 L0,10 L-1,10 Z " fill="#474747" transform="translate(11,6)"/>
<path d="M0,0 L14,0 L14,1 L0,1 Z M6,5 L15,5 L15,6 L8,6 L8,7 L7,7 L7,14 L6,14 Z " fill="#000000" opacity="0.92941177" transform="translate(3,0)"/>
<path d="M0,0 L1,0 L1,9 L2,9 L2,12 L-7,12 L-7,9 L0,9 Z " fill="#000000" transform="translate(8,5)"/>
<path d="M0,0 L14,0 L14,2 L13,2 L13,1 L1,1 L1,12 L0,12 Z " fill="#878787" transform="translate(2,2)"/>
<path d="M0,0 L1,0 L1,12 L-13,12 L-13,11 L0,11 Z " fill="#878787" transform="translate(15,7)"/>
<path d="M0,0 L1,0 L1,12 L0,12 Z M0,13 L1,13 L1,14 L0,14 Z " fill="#000000" opacity="0.8352941" transform="translate(0,2)"/>
<path d="M0,0 L9,0 L9,1 L2,1 L2,2 L1,2 L1,9 L0,9 Z " fill="#000000" transform="translate(9,5)"/>
<path d="M0,0 L1,0 L1,11 L0,11 Z " fill="#000000" opacity="0.88235295" transform="translate(17,8)"/>
<path d="M0,0 L6,0 L6,1 L0,1 Z M-1,1 L0,1 L0,10 L-1,10 Z " fill="#3E3E3E" transform="translate(11,6)"/>
<path d="M0,0 L1,0 L1,9 L0,9 Z M-6,9 L0,9 L0,10 L-6,10 Z " fill="#3E3E3E" transform="translate(8,5)"/>
<path d="M0,0 L1,0 L1,13 L0,13 Z " fill="#373737" transform="translate(1,1)"/>
<path d="M0,0 L1,0 L1,12 L0,12 Z " fill="#565656" transform="translate(16,7)"/>
<path d="M0,0 L1,0 L1,11 L0,11 Z " fill="#868686" transform="translate(15,7)"/>
<path d="M0,0 L1,0 L1,11 L0,11 Z " fill="#868686" transform="translate(2,3)"/>
<path d="M0,0 L8,0 L8,1 L0,1 Z " fill="#3E3E3E" transform="translate(2,16)"/>
<path d="M0,0 L8,0 L8,1 L0,1 Z " fill="#3E3E3E" transform="translate(9,4)"/>
<path d="M0,0 L7,0 L7,1 L0,1 Z " fill="#7F7F7F" transform="translate(2,17)"/>
<path d="M0,0 L1,0 L1,1 L0,1 Z M-6,1 L0,1 L0,2 L-6,2 Z " fill="#3E3E3E" transform="translate(8,13)"/>
<path d="M0,0 L1,0 L1,7 L0,7 Z " fill="#000000" transform="translate(9,7)"/>
<path d="M0,0 L6,0 L6,1 L0,1 Z M-1,1 L0,1 L0,2 L-1,2 Z " fill="#3E3E3E" transform="translate(11,6)"/>
<path d="M0,0 L1,0 L1,5 L0,5 Z " fill="#565656" transform="translate(16,7)"/>
<path d="M0,0 L1,0 L1,2 L0,2 Z " fill="#000000" opacity="0.88235295" transform="translate(17,2)"/>
<path d="M0,0 L1,0 L1,2 L0,2 Z " fill="#000000" opacity="0.8352941" transform="translate(0,17)"/>
<path d="M0,0 L2,0 L2,2 L0,2 Z " fill="#000000" transform="translate(8,14)"/>
<path d="M0,0 L1,0 L1,4 L0,4 Z " fill="#373737" transform="translate(1,10)"/>
<path d="M0,0 L1,0 L1,3 L0,3 Z " fill="#3A3A3A" transform="translate(1,17)"/>
<path d="M0,0 L1,0 L1,3 L0,3 Z " fill="#000000" transform="translate(1,14)"/>
<path d="M0,0 L1,0 L1,1 L0,1 Z M-2,1 L0,1 L0,2 L-2,2 Z " fill="#3E3E3E" transform="translate(8,13)"/>
<path d="M0,0 L1,0 L1,1 L0,1 Z " fill="#000000" opacity="0.92941177" transform="translate(2,20)"/>
<path d="M0,0 L2,0 L2,1 L0,1 Z " fill="#474747" transform="translate(2,19)"/>
<path d="M0,0 L2,0 L2,1 L0,1 Z " fill="#878787" transform="translate(2,18)"/>
<path d="M0,0 L2,0 L2,1 L0,1 Z " fill="#7F7F7F" transform="translate(2,17)"/>
<path d="M0,0 L2,0 L2,1 L0,1 Z " fill="#3E3E3E" transform="translate(2,16)"/>
<path d="M0,0 L1,0 L1,2 L0,2 Z " fill="#000000" opacity="0.91764706" transform="translate(0,15)"/>
<path d="M0,0 L2,0 L2,1 L0,1 Z " fill="#3E3E3E" transform="translate(2,14)"/>
<path d="M0,0 L1,0 L1,2 L0,2 Z " fill="#373737" transform="translate(1,10)"/>
<path d="M0,0 L1,0 L1,1 L0,1 Z " fill="#000000" opacity="0.88235295" transform="translate(17,7)"/>
<path d="M0,0 L1,0 L1,2 L0,2 Z " fill="#3E3E3E" transform="translate(8,5)"/>
<path d="M0,0 L1,0 L1,2 L0,2 Z " fill="#565656" transform="translate(16,2)"/>
<path d="M0,0 L2,0 L2,1 L0,1 Z " fill="#878787" transform="translate(2,2)"/>
<path d="M0,0 L1,0 L1,2 L0,2 Z " fill="#3A3A3A" transform="translate(1,1)"/>
<path d="M0,0 L1,0 L1,1 L0,1 Z " fill="#000000" opacity="0.9098039" transform="translate(17,1)"/>
<path d="M0,0 L2,0 L2,1 L0,1 Z " fill="#474747" transform="translate(2,1)"/>
<path d="M0,0 L1,0 L1,1 L0,1 Z " fill="#000000" opacity="0.8666667" transform="translate(0,1)"/>
<path d="M0,0 L1,0 L1,1 L0,1 Z " fill="#000000" opacity="0.92941177" transform="translate(2,0)"/>
<path d="M0,0 L1,0 L1,1 L0,1 Z " fill="#000000" opacity="0.6862745" transform="translate(17,20)"/>
<path d="M0,0 L1,0 L1,1 L0,1 Z " fill="#000000" opacity="0.9254902" transform="translate(1,20)"/>
<path d="M0,0 L1,0 L1,1 L0,1 Z " fill="#000000" opacity="0.54509807" transform="translate(0,20)"/>
<path d="M0,0 L1,0 L1,1 L0,1 Z " fill="#000000" opacity="0.9098039" transform="translate(17,19)"/>
<path d="M0,0 L1,0 L1,1 L0,1 Z " fill="#303030" transform="translate(16,19)"/>
<path d="M0,0 L1,0 L1,1 L0,1 Z " fill="#4B4B4B" transform="translate(15,19)"/>
<path d="M0,0 L1,0 L1,1 L0,1 Z " fill="#4B4B4B" transform="translate(2,19)"/>
<path d="M0,0 L1,0 L1,1 L0,1 Z " fill="#1E1E1E" transform="translate(1,19)"/>
<path d="M0,0 L1,0 L1,1 L0,1 Z " fill="#000000" opacity="0.8666667" transform="translate(0,19)"/>
<path d="M0,0 L1,0 L1,1 L0,1 Z " fill="#5B5B5B" transform="translate(16,18)"/>
<path d="M0,0 L1,0 L1,1 L0,1 Z " fill="#8E8E8E" transform="translate(15,18)"/>
<path d="M0,0 L1,0 L1,1 L0,1 Z " fill="#8E8E8E" transform="translate(2,18)"/>
<path d="M0,0 L1,0 L1,1 L0,1 Z " fill="#868686" transform="translate(2,17)"/>
<path d="M0,0 L1,0 L1,1 L0,1 Z " fill="#373737" transform="translate(1,17)"/>
<path d="M0,0 L1,0 L1,1 L0,1 Z " fill="#464646" transform="translate(9,16)"/>
<path d="M0,0 L1,0 L1,1 L0,1 Z " fill="#424242" transform="translate(2,16)"/>
<path d="M0,0 L1,0 L1,1 L0,1 Z " fill="#1A1A1A" transform="translate(1,16)"/>
<path d="M0,0 L1,0 L1,1 L0,1 Z " fill="#4D4D4D" transform="translate(10,15)"/>
<path d="M0,0 L1,0 L1,1 L0,1 Z " fill="#020202" transform="translate(9,15)"/>
<path d="M0,0 L1,0 L1,1 L0,1 Z " fill="#000000" transform="translate(0,15)"/>
<path d="M0,0 L1,0 L1,1 L0,1 Z " fill="#1E1E1E" transform="translate(8,14)"/>
<path d="M0,0 L1,0 L1,1 L0,1 Z " fill="#424242" transform="translate(2,14)"/>
<path d="M0,0 L1,0 L1,1 L0,1 Z " fill="#1A1A1A" transform="translate(1,14)"/>
<path d="M0,0 L1,0 L1,1 L0,1 Z " fill="#000000" opacity="0.91764706" transform="translate(0,14)"/>
<path d="M0,0 L1,0 L1,1 L0,1 Z " fill="#7E7E7E" transform="translate(11,12)"/>
<path d="M0,0 L1,0 L1,1 L0,1 Z " fill="#555555" transform="translate(16,11)"/>
<path d="M0,0 L1,0 L1,1 L0,1 Z " fill="#3A3A3A" transform="translate(1,10)"/>
<path d="M0,0 L1,0 L1,1 L0,1 Z " fill="#353535" transform="translate(1,9)"/>
<path d="M0,0 L1,0 L1,1 L0,1 Z " fill="#363636" transform="translate(1,8)"/>
<path d="M0,0 L1,0 L1,1 L0,1 Z " fill="#000000" opacity="0.9411765" transform="translate(17,6)"/>
<path d="M0,0 L1,0 L1,1 L0,1 Z " fill="#2A2A2A" transform="translate(16,6)"/>
<path d="M0,0 L1,0 L1,1 L0,1 Z " fill="#424242" transform="translate(15,6)"/>
<path d="M0,0 L1,0 L1,1 L0,1 Z " fill="#1E1E1E" transform="translate(10,6)"/>
<path d="M0,0 L1,0 L1,1 L0,1 Z " fill="#5E5E5E" transform="translate(8,5)"/>
<path d="M0,0 L1,0 L1,1 L0,1 Z " fill="#000000" opacity="0.9411765" transform="translate(17,4)"/>
<path d="M0,0 L1,0 L1,1 L0,1 Z " fill="#2A2A2A" transform="translate(16,4)"/>
<path d="M0,0 L1,0 L1,1 L0,1 Z " fill="#424242" transform="translate(15,4)"/>
<path d="M0,0 L1,0 L1,1 L0,1 Z " fill="#868686" transform="translate(15,3)"/>
<path d="M0,0 L1,0 L1,1 L0,1 Z " fill="#5B5B5B" transform="translate(16,2)"/>
<path d="M0,0 L1,0 L1,1 L0,1 Z " fill="#8E8E8E" transform="translate(15,2)"/>
<path d="M0,0 L1,0 L1,1 L0,1 Z " fill="#8D8D8D" transform="translate(2,2)"/>
<path d="M0,0 L1,0 L1,1 L0,1 Z " fill="#303030" transform="translate(16,1)"/>
<path d="M0,0 L1,0 L1,1 L0,1 Z " fill="#4B4B4B" transform="translate(15,1)"/>
<path d="M0,0 L1,0 L1,1 L0,1 Z " fill="#4B4B4B" transform="translate(2,1)"/>
<path d="M0,0 L1,0 L1,1 L0,1 Z " fill="#1E1E1E" transform="translate(1,1)"/>
<path d="M0,0 L1,0 L1,1 L0,1 Z " fill="#000000" opacity="0.6862745" transform="translate(17,0)"/>
<path d="M0,0 L1,0 L1,1 L0,1 Z " fill="#000000" opacity="0.9254902" transform="translate(1,0)"/>
<path d="M0,0 L1,0 L1,1 L0,1 Z " fill="#000000" opacity="0.54509807" transform="translate(0,0)"/>
</svg>
