<?xml version="1.0" encoding="UTF-8"?>
<!-- Generator: visioncortex VTracer 0.6.4 -->
<svg version="1.1" xmlns="http://www.w3.org/2000/svg" width="20" height="21">
<path d="M0,0 L1,0 L1,4 L0,4 Z M10,2 L11,2 L11,3 L10,3 Z M15,4 L16,4 L16,5 L15,5 Z M5,6 L6,6 L6,7 L5,7 Z M0,8 L1,8 L1,12 L0,12 Z M6,8 L7,8 L7,10 L6,10 Z " fill="#878787" transform="translate(2,6)"/>
<path d="M0,0 L3,0 L3,1 L0,1 Z M11,0 L14,0 L14,1 L12,1 L12,2 L11,2 Z M14,1 L15,1 L15,5 L13,5 L13,4 L14,4 Z M5,4 L6,4 L6,5 L5,5 Z M11,7 L12,7 L12,8 L11,8 Z M8,9 L9,9 L9,10 L8,10 Z M13,10 L15,10 L15,13 L14,13 L14,11 L13,11 Z M1,11 L2,11 L2,12 L1,12 Z M2,12 L3,12 L3,14 L0,14 L0,13 L2,13 Z M9,13 L10,13 L10,14 L9,14 Z M11,13 L14,13 L14,14 L11,14 Z " fill="#858585" transform="translate(3,5)"/>
<path d="M0,0 L6,0 L6,1 L7,1 L7,2 L8,2 L8,3 L9,3 L9,10 L8,10 L8,11 L7,11 L7,12 L0,12 L0,11 L-1,11 L-1,10 L-2,10 L-2,9 L-3,9 L-3,4 L-2,4 L-2,2 L-1,2 L-1,1 L0,1 Z " fill="#252525" transform="translate(7,6)"/>
<path d="M0,0 L1,0 L1,2 L0,2 Z M17,0 L18,0 L18,2 L17,2 Z M3,17 L16,17 L16,18 L3,18 Z " fill="#000000" opacity="0.88235295" transform="translate(1,3)"/>
<path d="M0,0 L1,0 L1,1 L0,1 Z M5,0 L6,0 L6,1 L5,1 Z " fill="#2B2B2B" transform="translate(3,4)"/>
<path d="M0,0 L1,0 L1,1 L0,1 Z M2,0 L6,0 L6,1 L2,1 Z M10,0 L15,0 L15,1 L10,1 Z " fill="#2A2A2A" transform="translate(2,4)"/>
<path d="M0,0 L9,0 L9,14 L3,14 L3,13 L5,13 L5,12 L6,12 L6,11 L7,11 L7,4 L6,4 L6,3 L5,3 L5,2 L4,2 L4,1 L0,1 Z " fill="#858585" transform="translate(9,5)"/>
<path d="M0,0 L3,0 L3,2 L4,2 L4,3 L6,3 L6,2 L7,2 L7,0 L10,0 L10,3 L8,3 L8,4 L9,4 L9,5 L7,5 L7,6 L6,6 L6,5 L5,5 L5,6 L3,6 L3,5 L2,5 L2,3 L0,3 Z " fill="#6F6F6F" transform="translate(5,11)"/>
<path d="M0,0 L1,0 L1,14 L0,14 Z M-10,13 L-6,13 L-6,14 L0,14 L0,15 L-15,15 L-15,14 L-10,14 Z " fill="#656565" transform="translate(18,5)"/>
<path d="M0,0 L1,0 L1,1 L2,1 L2,8 L1,8 L1,9 L0,9 L0,10 L-7,10 L-7,9 L-8,9 L-8,8 L-9,8 L-9,7 L-10,7 L-10,2 L-9,2 L-9,6 L-7,6 L-7,8 L-6,8 L-6,9 L-4,9 L-4,8 L-3,8 L-3,9 L-2,9 L-2,8 L0,8 L0,7 L-1,7 L-1,6 L1,6 L1,2 L0,2 Z " fill="#171717" transform="translate(14,8)"/>
<path d="M0,0 L14,0 L14,2 L0,2 Z " fill="#4F4F4F" transform="translate(3,2)"/>
<path d="M0,0 L1,0 L1,2 L0,2 Z M-1,4 L0,4 L0,16 L-1,16 Z " fill="#000000" opacity="0.7882353" transform="translate(1,3)"/>
<path d="M0,0 L1,0 L1,9 L-5,9 L-5,8 L-3,8 L-3,7 L-2,7 L-2,6 L-1,6 L-1,4 L0,4 Z " fill="#858585" transform="translate(17,10)"/>
<path d="M0,0 L2,0 L2,1 L0,1 Z " fill="#000000" opacity="0.7882353" transform="translate(9,0)"/>
<path d="M0,0 L1,0 L1,2 L0,2 Z M1,3 L2,3 L2,15 L1,15 Z " fill="#000000" opacity="0.90588236" transform="translate(18,3)"/>
<path d="M0,0 L1,0 L1,4 L3,4 L3,6 L4,6 L4,7 L6,7 L6,6 L7,6 L7,7 L8,7 L8,8 L3,8 L3,7 L2,7 L2,6 L1,6 L1,5 L0,5 Z " fill="#0F0F0F" transform="translate(4,10)"/>
<path d="M0,0 L1,0 L1,14 L0,14 Z M-1,14 L0,14 L0,15 L-1,15 Z " fill="#5E5E5E" transform="translate(18,5)"/>
<path d="M0,0 L3,0 L3,2 L4,2 L4,6 L3,6 L3,5 L2,5 L2,3 L0,3 Z " fill="#5A5A5A" transform="translate(5,11)"/>
<path d="M0,0 L1,0 L1,13 L0,13 Z " fill="#3F3F3F" transform="translate(1,5)"/>
<path d="M0,0 L14,0 L14,1 L0,1 Z " fill="#8C8C8C" transform="translate(3,2)"/>
<path d="M0,0 L13,0 L13,1 L0,1 Z " fill="#565656" transform="translate(4,1)"/>
<path d="M0,0 L1,0 L1,2 L3,2 L3,1 L2,1 L2,0 L4,0 L4,1 L5,1 L5,2 L6,2 L6,3 L0,3 Z " fill="#858585" transform="translate(2,16)"/>
<path d="M0,0 L1,0 L1,1 L2,1 L2,3 L-2,3 L-2,4 L-3,4 L-3,3 L-4,3 L-4,1 L-2,1 L-2,2 L0,2 Z " fill="#858585" transform="translate(11,7)"/>
<path d="M0,0 L1,0 L1,4 L2,4 L2,5 L1,5 L1,6 L2,6 L2,7 L0,7 L0,5 L-1,5 L-1,3 L0,3 Z " fill="#878787" transform="translate(3,11)"/>
<path d="M0,0 L4,0 L4,2 L3,2 L3,3 L1,3 L1,2 L0,2 Z " fill="#000000" transform="translate(8,11)"/>
<path d="M0,0 L4,0 L4,1 L3,1 L3,2 L2,2 L2,4 L1,4 L1,3 L0,3 Z " fill="#7F7F7F" transform="translate(3,6)"/>
<path d="M0,0 L2,0 L2,1 L0,1 Z " fill="#000000" opacity="0.7411765" transform="translate(13,0)"/>
<path d="M0,0 L1,0 L1,1 L0,1 Z M-1,1 L0,1 L0,2 L2,2 L2,1 L3,1 L3,3 L-3,3 L-3,2 L-1,2 Z " fill="#858585" transform="translate(15,16)"/>
<path d="M0,0 L1,0 L1,2 L2,2 L2,3 L-4,3 L-4,2 L0,2 Z " fill="#626262" transform="translate(13,8)"/>
<path d="M0,0 L4,0 L4,1 L5,1 L5,2 L3,2 L3,1 L2,1 L2,3 L1,3 L1,1 L0,1 Z " fill="#070707" transform="translate(9,6)"/>
<path d="M0,0 L1,0 L1,3 L-5,3 L-5,2 L0,2 Z " fill="#2A2A2A" transform="translate(17,2)"/>
<path d="M0,0 L3,0 L3,3 L2,3 L2,2 L0,2 Z " fill="#888888" transform="translate(12,11)"/>
<path d="M0,0 L5,0 L5,1 L0,1 Z " fill="#5E5E5E" transform="translate(3,19)"/>
<path d="M0,0 L1,0 L1,2 L0,2 Z " fill="#060606" transform="translate(1,3)"/>
<path d="M0,0 L5,0 L5,1 L0,1 Z " fill="#5E5E5E" transform="translate(12,19)"/>
<path d="M0,0 L3,0 L3,1 L2,1 L2,2 L0,2 Z " fill="#161616" transform="translate(12,16)"/>
<path d="M0,0 L1,0 L1,1 L2,1 L2,2 L-2,2 L-2,1 L0,1 Z " fill="#010101" transform="translate(10,16)"/>
<path d="M0,0 L3,0 L3,1 L2,1 L2,2 L1,2 L1,1 L0,1 Z M2,2 L3,2 L3,3 L2,3 Z " fill="#666666" transform="translate(11,13)"/>
<path d="M0,0 L1,0 L1,1 L2,1 L2,3 L0,3 Z " fill="#7D7D7D" transform="translate(11,7)"/>
<path d="M0,0 L2,0 L2,2 L1,2 L1,3 L0,3 Z " fill="#7F7F7F" transform="translate(15,6)"/>
<path d="M0,0 L5,0 L5,1 L0,1 Z " fill="#777777" transform="translate(9,5)"/>
<path d="M0,0 L5,0 L5,1 L0,1 Z " fill="#4E4E4E" transform="translate(12,1)"/>
<path d="M0,0 L1,0 L1,1 L2,1 L2,3 L1,3 L1,2 L0,2 Z " fill="#262626" transform="translate(6,15)"/>
<path d="M0,0 L1,0 L1,2 L2,2 L2,3 L0,3 Z " fill="#878787" transform="translate(2,16)"/>
<path d="M0,0 L1,0 L1,1 L2,1 L2,2 L1,2 L1,3 L0,3 Z " fill="#838383" transform="translate(11,14)"/>
<path d="M0,0 L1,0 L1,3 L0,3 L0,2 L-1,2 L-1,1 L0,1 Z " fill="#878787" transform="translate(8,14)"/>
<path d="M0,0 L1,0 L1,4 L0,4 Z " fill="#888888" transform="translate(17,10)"/>
<path d="M0,0 L2,0 L2,2 L0,2 Z " fill="#878787" transform="translate(6,11)"/>
<path d="M0,0 L1,0 L1,1 L2,1 L2,3 L1,3 L1,2 L0,2 Z " fill="#1A1A1A" transform="translate(14,8)"/>
<path d="M0,0 L1,0 L1,1 L2,1 L2,2 L-1,2 L-1,1 L0,1 Z " fill="#313131" transform="translate(6,9)"/>
<path d="M0,0 L1,0 L1,2 L2,2 L2,3 L0,3 Z " fill="#515151" transform="translate(13,8)"/>
<path d="M0,0 L2,0 L2,1 L1,1 L1,3 L0,3 Z " fill="#818181" transform="translate(4,7)"/>
<path d="M0,0 L1,0 L1,2 L0,2 Z M1,2 L2,2 L2,3 L1,3 Z " fill="#000000" opacity="0.9098039" transform="translate(18,3)"/>
<path d="M0,0 L4,0 L4,1 L0,1 Z " fill="#8D8D8D" transform="translate(13,2)"/>
<path d="M0,0 L1,0 L1,1 L0,1 Z M-1,1 L0,1 L0,3 L-1,3 Z " fill="#090909" transform="translate(3,1)"/>
<path d="M0,0 L1,0 L1,1 L0,1 Z " fill="#000000" opacity="0.7294118" transform="translate(5,0)"/>
<path d="M0,0 L1,0 L1,1 L0,1 Z M-1,1 L0,1 L0,2 L-1,2 Z " fill="#626262" transform="translate(18,18)"/>
<path d="M0,0 L3,0 L3,1 L0,1 Z " fill="#898989" transform="translate(5,18)"/>
<path d="M0,0 L1,0 L1,2 L-1,2 L-1,1 L0,1 Z " fill="#858585" transform="translate(17,17)"/>
<path d="M0,0 L1,0 L1,2 L-1,2 L-1,1 L0,1 Z " fill="#7F7F7F" transform="translate(16,16)"/>
<path d="M0,0 L1,0 L1,1 L2,1 L2,2 L0,2 Z " fill="#7F7F7F" transform="translate(3,16)"/>
<path d="M0,0 L2,0 L2,2 L1,2 L1,1 L0,1 Z " fill="#0D0D0D" transform="translate(13,14)"/>
<path d="M0,0 L2,0 L2,1 L1,1 L1,2 L0,2 Z " fill="#434343" transform="translate(7,13)"/>
<path d="M0,0 L2,0 L2,1 L1,1 L1,2 L0,2 Z " fill="#0B0B0B" transform="translate(5,14)"/>
<path d="M0,0 L1,0 L1,3 L0,3 Z " fill="#636363" transform="translate(16,11)"/>
<path d="M0,0 L1,0 L1,3 L0,3 Z " fill="#737373" transform="translate(3,11)"/>
<path d="M0,0 L1,0 L1,3 L0,3 Z " fill="#8A8A8A" transform="translate(2,11)"/>
<path d="M0,0 L1,0 L1,1 L2,1 L2,2 L0,2 Z " fill="#232323" transform="translate(12,6)"/>
<path d="M0,0 L2,0 L2,2 L1,2 L1,1 L0,1 Z " fill="#3E3E3E" transform="translate(8,7)"/>
<path d="M0,0 L2,0 L2,2 L1,2 L1,1 L0,1 Z " fill="#858585" transform="translate(16,5)"/>
<path d="M0,0 L3,0 L3,1 L0,1 Z " fill="#2D2D2D" transform="translate(9,4)"/>
<path d="M0,0 L3,0 L3,1 L0,1 Z " fill="#4E4E4E" transform="translate(4,1)"/>
<path d="M0,0 L1,0 L1,1 L0,1 Z " fill="#000000" opacity="0.88235295" transform="translate(3,20)"/>
<path d="M0,0 L1,0 L1,1 L0,1 Z " fill="#000000" opacity="0.52156866" transform="translate(1,20)"/>
<path d="M0,0 L1,0 L1,2 L0,2 Z " fill="#626262" transform="translate(8,18)"/>
<path d="M0,0 L1,0 L1,1 L0,1 Z " fill="#5F5F5F" transform="translate(3,19)"/>
<path d="M0,0 L2,0 L2,1 L0,1 Z " fill="#8B8B8B" transform="translate(12,18)"/>
<path d="M0,0 L2,0 L2,1 L0,1 Z " fill="#565656" transform="translate(9,18)"/>
<path d="M0,0 L2,0 L2,1 L0,1 Z " fill="#0B0B0B" transform="translate(8,17)"/>
<path d="M0,0 L1,0 L1,1 L0,1 Z M-1,1 L0,1 L0,2 L-1,2 Z " fill="#868686" transform="translate(15,16)"/>
<path d="M0,0 L1,0 L1,2 L0,2 Z " fill="#0B0B0B" transform="translate(6,15)"/>
<path d="M0,0 L1,0 L1,2 L0,2 Z " fill="#858585" transform="translate(16,14)"/>
<path d="M0,0 L1,0 L1,1 L0,1 Z M1,1 L2,1 L2,2 L1,2 Z " fill="#636363" transform="translate(12,14)"/>
<path d="M0,0 L2,0 L2,1 L0,1 Z " fill="#010101" transform="translate(9,13)"/>
<path d="M0,0 L1,0 L1,2 L0,2 Z " fill="#292929" transform="translate(15,11)"/>
<path d="M0,0 L1,0 L1,2 L0,2 Z " fill="#7C7C7C" transform="translate(12,11)"/>
<path d="M0,0 L1,0 L1,2 L0,2 Z " fill="#080808" transform="translate(11,11)"/>
<path d="M0,0 L1,0 L1,2 L0,2 Z " fill="#181818" transform="translate(8,11)"/>
<path d="M0,0 L1,0 L1,2 L0,2 Z " fill="#898989" transform="translate(6,11)"/>
<path d="M0,0 L1,0 L1,2 L0,2 Z " fill="#707070" transform="translate(5,11)"/>
<path d="M0,0 L1,0 L1,2 L0,2 Z " fill="#888888" transform="translate(17,10)"/>
<path d="M0,0 L1,0 L1,2 L0,2 Z " fill="#0C0C0C" transform="translate(4,10)"/>
<path d="M0,0 L2,0 L2,1 L0,1 Z " fill="#2E2E2E" transform="translate(9,10)"/>
<path d="M0,0 L1,0 L1,2 L0,2 Z " fill="#000000" transform="translate(14,8)"/>
<path d="M0,0 L2,0 L2,1 L0,1 Z " fill="#737373" transform="translate(9,9)"/>
<path d="M0,0 L1,0 L1,2 L0,2 Z " fill="#767676" transform="translate(7,8)"/>
<path d="M0,0 L1,0 L1,2 L0,2 Z " fill="#898989" transform="translate(11,7)"/>
<path d="M0,0 L1,0 L1,2 L0,2 Z " fill="#1C1C1C" transform="translate(10,7)"/>
<path d="M0,0 L1,0 L1,2 L0,2 Z " fill="#5F5F5F" transform="translate(18,5)"/>
<path d="M0,0 L2,0 L2,1 L0,1 Z " fill="#141414" transform="translate(7,6)"/>
<path d="M0,0 L2,0 L2,1 L0,1 Z " fill="#818181" transform="translate(5,6)"/>
<path d="M0,0 L1,0 L1,2 L0,2 Z " fill="#878787" transform="translate(2,5)"/>
<path d="M0,0 L1,0 L1,2 L0,2 Z " fill="#404040" transform="translate(1,5)"/>
<path d="M0,0 L1,0 L1,1 L0,1 Z " fill="#000000" opacity="0.7882353" transform="translate(0,6)"/>
<path d="M0,0 L2,0 L2,1 L0,1 Z " fill="#888888" transform="translate(12,5)"/>
<path d="M0,0 L1,0 L1,2 L0,2 Z " fill="#101010" transform="translate(18,3)"/>
<path d="M0,0 L1,0 L1,1 L0,1 Z " fill="#000000" opacity="0.76862746" transform="translate(0,4)"/>
<path d="M0,0 L1,0 L1,1 L0,1 Z " fill="#000000" opacity="0.5568628" transform="translate(19,3)"/>
<path d="M0,0 L1,0 L1,2 L0,2 Z " fill="#303030" transform="translate(17,2)"/>
<path d="M0,0 L2,0 L2,1 L0,1 Z " fill="#4F4F4F" transform="translate(3,3)"/>
<path d="M0,0 L2,0 L2,1 L0,1 Z " fill="#919191" transform="translate(3,2)"/>
<path d="M0,0 L1,0 L1,1 L0,1 Z " fill="#000000" opacity="0.60784316" transform="translate(1,2)"/>
<path d="M0,0 L1,0 L1,1 L0,1 Z " fill="#000000" opacity="0.75686276" transform="translate(7,0)"/>
<path d="M0,0 L1,0 L1,1 L0,1 Z " fill="#000000" opacity="0.5411765" transform="translate(3,0)"/>
<path d="M0,0 L1,0 L1,1 L0,1 Z " fill="#000000" opacity="0.32941177" transform="translate(19,20)"/>
<path d="M0,0 L1,0 L1,1 L0,1 Z " fill="#000000" opacity="0.76862746" transform="translate(18,20)"/>
<path d="M0,0 L1,0 L1,1 L0,1 Z " fill="#000000" opacity="0.8784314" transform="translate(17,20)"/>
<path d="M0,0 L1,0 L1,1 L0,1 Z " fill="#000000" opacity="0.7921569" transform="translate(2,20)"/>
<path d="M0,0 L1,0 L1,1 L0,1 Z " fill="#000000" opacity="0.21176471" transform="translate(0,20)"/>
<path d="M0,0 L1,0 L1,1 L0,1 Z " fill="#000000" opacity="0.77254903" transform="translate(19,19)"/>
<path d="M0,0 L1,0 L1,1 L0,1 Z " fill="#313131" opacity="0.9647059" transform="translate(18,19)"/>
<path d="M0,0 L1,0 L1,1 L0,1 Z " fill="#5F5F5F" transform="translate(12,19)"/>
<path d="M0,0 L1,0 L1,1 L0,1 Z " fill="#636363" transform="translate(11,19)"/>
<path d="M0,0 L1,0 L1,1 L0,1 Z " fill="#5E5E5E" opacity="0.9764706" transform="translate(2,19)"/>
<path d="M0,0 L1,0 L1,1 L0,1 Z " fill="#191919" opacity="0.9019608" transform="translate(1,19)"/>
<path d="M0,0 L1,0 L1,1 L0,1 Z " fill="#000000" opacity="0.7058824" transform="translate(0,19)"/>
<path d="M0,0 L1,0 L1,1 L0,1 Z " fill="#000000" opacity="0.9019608" transform="translate(19,18)"/>
<path d="M0,0 L1,0 L1,1 L0,1 Z " fill="#8B8B8B" transform="translate(17,18)"/>
<path d="M0,0 L1,0 L1,1 L0,1 Z " fill="#858585" transform="translate(12,18)"/>
<path d="M0,0 L1,0 L1,1 L0,1 Z " fill="#585858" transform="translate(9,18)"/>
<path d="M0,0 L1,0 L1,1 L0,1 Z " fill="#6D6D6D" transform="translate(8,18)"/>
<path d="M0,0 L1,0 L1,1 L0,1 Z " fill="#898989" transform="translate(7,18)"/>
<path d="M0,0 L1,0 L1,1 L0,1 Z " fill="#858585" transform="translate(5,18)"/>
<path d="M0,0 L1,0 L1,1 L0,1 Z " fill="#858585" transform="translate(3,18)"/>
<path d="M0,0 L1,0 L1,1 L0,1 Z " fill="#8D8D8D" transform="translate(2,18)"/>
<path d="M0,0 L1,0 L1,1 L0,1 Z " fill="#414141" opacity="0.99607843" transform="translate(1,18)"/>
<path d="M0,0 L1,0 L1,1 L0,1 Z " fill="#808080" transform="translate(15,17)"/>
<path d="M0,0 L1,0 L1,1 L0,1 Z " fill="#575757" transform="translate(13,17)"/>
<path d="M0,0 L1,0 L1,1 L0,1 Z " fill="#111111" transform="translate(11,17)"/>
<path d="M0,0 L1,0 L1,1 L0,1 Z " fill="#0D0D0D" transform="translate(8,17)"/>
<path d="M0,0 L1,0 L1,1 L0,1 Z " fill="#707070" transform="translate(6,17)"/>
<path d="M0,0 L1,0 L1,1 L0,1 Z " fill="#424242" transform="translate(14,16)"/>
<path d="M0,0 L1,0 L1,1 L0,1 Z " fill="#070707" transform="translate(13,16)"/>
<path d="M0,0 L1,0 L1,1 L0,1 Z " fill="#484848" transform="translate(12,16)"/>
<path d="M0,0 L1,0 L1,1 L0,1 Z " fill="#808080" transform="translate(11,16)"/>
<path d="M0,0 L1,0 L1,1 L0,1 Z " fill="#161616" transform="translate(10,16)"/>
<path d="M0,0 L1,0 L1,1 L0,1 Z " fill="#484848" transform="translate(9,16)"/>
<path d="M0,0 L1,0 L1,1 L0,1 Z " fill="#7D7D7D" transform="translate(8,16)"/>
<path d="M0,0 L1,0 L1,1 L0,1 Z " fill="#2E2E2E" transform="translate(7,16)"/>
<path d="M0,0 L1,0 L1,1 L0,1 Z " fill="#676767" transform="translate(5,16)"/>
<path d="M0,0 L1,0 L1,1 L0,1 Z " fill="#4A4A4A" transform="translate(15,15)"/>
<path d="M0,0 L1,0 L1,1 L0,1 Z " fill="#000000" transform="translate(14,15)"/>
<path d="M0,0 L1,0 L1,1 L0,1 Z " fill="#8D8D8D" transform="translate(12,15)"/>
<path d="M0,0 L1,0 L1,1 L0,1 Z " fill="#464646" transform="translate(10,15)"/>
<path d="M0,0 L1,0 L1,1 L0,1 Z " fill="#616161" transform="translate(9,15)"/>
<path d="M0,0 L1,0 L1,1 L0,1 Z " fill="#8C8C8C" transform="translate(7,15)"/>
<path d="M0,0 L1,0 L1,1 L0,1 Z " fill="#3A3A3A" transform="translate(6,15)"/>
<path d="M0,0 L1,0 L1,1 L0,1 Z " fill="#070707" transform="translate(5,15)"/>
<path d="M0,0 L1,0 L1,1 L0,1 Z " fill="#6F6F6F" transform="translate(4,15)"/>
<path d="M0,0 L1,0 L1,1 L0,1 Z " fill="#838383" transform="translate(3,15)"/>
<path d="M0,0 L1,0 L1,1 L0,1 Z " fill="#868686" transform="translate(17,14)"/>
<path d="M0,0 L1,0 L1,1 L0,1 Z " fill="#7F7F7F" transform="translate(16,14)"/>
<path d="M0,0 L1,0 L1,1 L0,1 Z " fill="#141414" transform="translate(13,14)"/>
<path d="M0,0 L1,0 L1,1 L0,1 Z " fill="#858585" transform="translate(11,14)"/>
<path d="M0,0 L1,0 L1,1 L0,1 Z " fill="#747474" transform="translate(9,14)"/>
<path d="M0,0 L1,0 L1,1 L0,1 Z " fill="#0A0A0A" transform="translate(5,14)"/>
<path d="M0,0 L1,0 L1,1 L0,1 Z " fill="#313131" transform="translate(4,14)"/>
<path d="M0,0 L1,0 L1,1 L0,1 Z " fill="#868686" transform="translate(3,14)"/>
<path d="M0,0 L1,0 L1,1 L0,1 Z " fill="#707070" transform="translate(16,13)"/>
<path d="M0,0 L1,0 L1,1 L0,1 Z " fill="#1E1E1E" transform="translate(15,13)"/>
<path d="M0,0 L1,0 L1,1 L0,1 Z " fill="#767676" transform="translate(14,13)"/>
<path d="M0,0 L1,0 L1,1 L0,1 Z " fill="#424242" transform="translate(13,13)"/>
<path d="M0,0 L1,0 L1,1 L0,1 Z " fill="#3A3A3A" transform="translate(11,13)"/>
<path d="M0,0 L1,0 L1,1 L0,1 Z " fill="#080808" transform="translate(9,13)"/>
<path d="M0,0 L1,0 L1,1 L0,1 Z " fill="#5A5A5A" transform="translate(8,13)"/>
<path d="M0,0 L1,0 L1,1 L0,1 Z " fill="#4E4E4E" transform="translate(7,13)"/>
<path d="M0,0 L1,0 L1,1 L0,1 Z " fill="#5E5E5E" transform="translate(5,13)"/>
<path d="M0,0 L1,0 L1,1 L0,1 Z " fill="#7B7B7B" transform="translate(3,13)"/>
<path d="M0,0 L1,0 L1,1 L0,1 Z " fill="#898989" transform="translate(2,13)"/>
<path d="M0,0 L1,0 L1,1 L0,1 Z " fill="#898989" transform="translate(17,12)"/>
<path d="M0,0 L1,0 L1,1 L0,1 Z " fill="#858585" transform="translate(14,12)"/>
<path d="M0,0 L1,0 L1,1 L0,1 Z " fill="#0D0D0D" transform="translate(4,12)"/>
<path d="M0,0 L1,0 L1,1 L0,1 Z " fill="#666666" transform="translate(16,11)"/>
<path d="M0,0 L1,0 L1,1 L0,1 Z " fill="#272727" transform="translate(15,11)"/>
<path d="M0,0 L1,0 L1,1 L0,1 Z " fill="#898989" transform="translate(14,11)"/>
<path d="M0,0 L1,0 L1,1 L0,1 Z " fill="#838383" transform="translate(13,11)"/>
<path d="M0,0 L1,0 L1,1 L0,1 Z " fill="#7A7A7A" transform="translate(12,11)"/>
<path d="M0,0 L1,0 L1,1 L0,1 Z " fill="#0C0C0C" transform="translate(11,11)"/>
<path d="M0,0 L1,0 L1,1 L0,1 Z " fill="#232323" transform="translate(8,11)"/>
<path d="M0,0 L1,0 L1,1 L0,1 Z " fill="#818181" transform="translate(7,11)"/>
<path d="M0,0 L1,0 L1,1 L0,1 Z " fill="#888888" transform="translate(6,11)"/>
<path d="M0,0 L1,0 L1,1 L0,1 Z " fill="#717171" transform="translate(5,11)"/>
<path d="M0,0 L1,0 L1,1 L0,1 Z " fill="#747474" transform="translate(3,11)"/>
<path d="M0,0 L1,0 L1,1 L0,1 Z " fill="#878787" transform="translate(17,10)"/>
<path d="M0,0 L1,0 L1,1 L0,1 Z " fill="#767676" transform="translate(16,10)"/>
<path d="M0,0 L1,0 L1,1 L0,1 Z " fill="#4D4D4D" transform="translate(14,10)"/>
<path d="M0,0 L1,0 L1,1 L0,1 Z " fill="#212121" transform="translate(13,10)"/>
<path d="M0,0 L1,0 L1,1 L0,1 Z " fill="#595959" transform="translate(11,10)"/>
<path d="M0,0 L1,0 L1,1 L0,1 Z " fill="#323232" transform="translate(9,10)"/>
<path d="M0,0 L1,0 L1,1 L0,1 Z " fill="#717171" transform="translate(8,10)"/>
<path d="M0,0 L1,0 L1,1 L0,1 Z " fill="#3F3F3F" transform="translate(7,10)"/>
<path d="M0,0 L1,0 L1,1 L0,1 Z " fill="#3D3D3D" transform="translate(5,10)"/>
<path d="M0,0 L1,0 L1,1 L0,1 Z " fill="#191919" transform="translate(4,10)"/>
<path d="M0,0 L1,0 L1,1 L0,1 Z " fill="#808080" transform="translate(3,10)"/>
<path d="M0,0 L1,0 L1,1 L0,1 Z " fill="#888888" transform="translate(2,10)"/>
<path d="M0,0 L1,0 L1,1 L0,1 Z " fill="#858585" transform="translate(17,9)"/>
<path d="M0,0 L1,0 L1,1 L0,1 Z " fill="#252525" transform="translate(15,9)"/>
<path d="M0,0 L1,0 L1,1 L0,1 Z " fill="#868686" transform="translate(11,9)"/>
<path d="M0,0 L1,0 L1,1 L0,1 Z " fill="#7C7C7C" transform="translate(9,9)"/>
<path d="M0,0 L1,0 L1,1 L0,1 Z " fill="#000000" transform="translate(5,9)"/>
<path d="M0,0 L1,0 L1,1 L0,1 Z " fill="#515151" transform="translate(4,9)"/>
<path d="M0,0 L1,0 L1,1 L0,1 Z " fill="#868686" transform="translate(3,9)"/>
<path d="M0,0 L1,0 L1,1 L0,1 Z " fill="#838383" transform="translate(16,8)"/>
<path d="M0,0 L1,0 L1,1 L0,1 Z " fill="#6B6B6B" transform="translate(15,8)"/>
<path d="M0,0 L1,0 L1,1 L0,1 Z " fill="#080808" transform="translate(14,8)"/>
<path d="M0,0 L1,0 L1,1 L0,1 Z " fill="#4A4A4A" transform="translate(13,8)"/>
<path d="M0,0 L1,0 L1,1 L0,1 Z " fill="#878787" transform="translate(12,8)"/>
<path d="M0,0 L1,0 L1,1 L0,1 Z " fill="#4C4C4C" transform="translate(9,8)"/>
<path d="M0,0 L1,0 L1,1 L0,1 Z " fill="#8E8E8E" transform="translate(8,8)"/>
<path d="M0,0 L1,0 L1,1 L0,1 Z " fill="#7E7E7E" transform="translate(7,8)"/>
<path d="M0,0 L1,0 L1,1 L0,1 Z " fill="#212121" transform="translate(5,8)"/>
<path d="M0,0 L1,0 L1,1 L0,1 Z " fill="#808080" transform="translate(3,8)"/>
<path d="M0,0 L1,0 L1,1 L0,1 Z " fill="#868686" transform="translate(15,7)"/>
<path d="M0,0 L1,0 L1,1 L0,1 Z " fill="#616161" transform="translate(14,7)"/>
<path d="M0,0 L1,0 L1,1 L0,1 Z " fill="#0B0B0B" transform="translate(13,7)"/>
<path d="M0,0 L1,0 L1,1 L0,1 Z " fill="#656565" transform="translate(11,7)"/>
<path d="M0,0 L1,0 L1,1 L0,1 Z " fill="#151515" transform="translate(10,7)"/>
<path d="M0,0 L1,0 L1,1 L0,1 Z " fill="#5C5C5C" transform="translate(8,7)"/>
<path d="M0,0 L1,0 L1,1 L0,1 Z " fill="#111111" transform="translate(7,7)"/>
<path d="M0,0 L1,0 L1,1 L0,1 Z " fill="#202020" transform="translate(6,7)"/>
<path d="M0,0 L1,0 L1,1 L0,1 Z " fill="#7A7A7A" transform="translate(5,7)"/>
<path d="M0,0 L1,0 L1,1 L0,1 Z " fill="#828282" transform="translate(4,7)"/>
<path d="M0,0 L1,0 L1,1 L0,1 Z " fill="#747474" transform="translate(13,6)"/>
<path d="M0,0 L1,0 L1,1 L0,1 Z " fill="#373737" transform="translate(12,6)"/>
<path d="M0,0 L1,0 L1,1 L0,1 Z " fill="#101010" transform="translate(11,6)"/>
<path d="M0,0 L1,0 L1,1 L0,1 Z " fill="#090909" transform="translate(9,6)"/>
<path d="M0,0 L1,0 L1,1 L0,1 Z " fill="#4A4A4A" transform="translate(7,6)"/>
<path d="M0,0 L1,0 L1,1 L0,1 Z " fill="#838383" transform="translate(5,6)"/>
<path d="M0,0 L1,0 L1,1 L0,1 Z " fill="#5B5B5B" transform="translate(18,5)"/>
<path d="M0,0 L1,0 L1,1 L0,1 Z " fill="#8C8C8C" transform="translate(17,5)"/>
<path d="M0,0 L1,0 L1,1 L0,1 Z " fill="#8C8C8C" transform="translate(12,5)"/>
<path d="M0,0 L1,0 L1,1 L0,1 Z " fill="#808080" transform="translate(11,5)"/>
<path d="M0,0 L1,0 L1,1 L0,1 Z " fill="#787878" transform="translate(9,5)"/>
<path d="M0,0 L1,0 L1,1 L0,1 Z " fill="#848484" transform="translate(8,5)"/>
<path d="M0,0 L1,0 L1,1 L0,1 Z " fill="#8C8C8C" transform="translate(7,5)"/>
<path d="M0,0 L1,0 L1,1 L0,1 Z " fill="#868686" transform="translate(6,5)"/>
<path d="M0,0 L1,0 L1,1 L0,1 Z " fill="#8C8C8C" transform="translate(2,5)"/>
<path d="M0,0 L1,0 L1,1 L0,1 Z " fill="#3B3B3B" transform="translate(1,5)"/>
<path d="M0,0 L1,0 L1,1 L0,1 Z " fill="#000000" opacity="0.79607844" transform="translate(0,5)"/>
<path d="M0,0 L1,0 L1,1 L0,1 Z " fill="#000000" opacity="0.8980392" transform="translate(19,4)"/>
<path d="M0,0 L1,0 L1,1 L0,1 Z " fill="#2E2E2E" transform="translate(17,4)"/>
<path d="M0,0 L1,0 L1,1 L0,1 Z " fill="#2C2C2C" transform="translate(11,4)"/>
<path d="M0,0 L1,0 L1,1 L0,1 Z " fill="#2B2B2B" transform="translate(8,4)"/>
<path d="M0,0 L1,0 L1,1 L0,1 Z " fill="#2A2A2A" transform="translate(2,4)"/>
<path d="M0,0 L1,0 L1,1 L0,1 Z " fill="#000000" transform="translate(18,3)"/>
<path d="M0,0 L1,0 L1,1 L0,1 Z " fill="#555555" transform="translate(16,3)"/>
<path d="M0,0 L1,0 L1,1 L0,1 Z " fill="#555555" transform="translate(3,3)"/>
<path d="M0,0 L1,0 L1,1 L0,1 Z " fill="#171717" transform="translate(2,3)"/>
<path d="M0,0 L1,0 L1,1 L0,1 Z " fill="#000000" transform="translate(1,3)"/>
<path d="M0,0 L1,0 L1,1 L0,1 Z " fill="#000000" opacity="0.32941177" transform="translate(0,3)"/>
<path d="M0,0 L1,0 L1,1 L0,1 Z " fill="#000000" opacity="0.03529412" transform="translate(19,2)"/>
<path d="M0,0 L1,0 L1,1 L0,1 Z " fill="#000000" opacity="0.7647059" transform="translate(18,2)"/>
<path d="M0,0 L1,0 L1,1 L0,1 Z " fill="#1C1C1C" transform="translate(17,2)"/>
<path d="M0,0 L1,0 L1,1 L0,1 Z " fill="#868686" transform="translate(16,2)"/>
<path d="M0,0 L1,0 L1,1 L0,1 Z " fill="#909090" transform="translate(15,2)"/>
<path d="M0,0 L1,0 L1,1 L0,1 Z " fill="#8D8D8D" transform="translate(5,2)"/>
<path d="M0,0 L1,0 L1,1 L0,1 Z " fill="#757575" transform="translate(3,2)"/>
<path d="M0,0 L1,0 L1,1 L0,1 Z " fill="#000000" opacity="0.101960786" transform="translate(18,1)"/>
<path d="M0,0 L1,0 L1,1 L0,1 Z " fill="#000000" opacity="0.8392157" transform="translate(17,1)"/>
<path d="M0,0 L1,0 L1,1 L0,1 Z " fill="#272727" transform="translate(16,1)"/>
<path d="M0,0 L1,0 L1,1 L0,1 Z " fill="#4A4A4A" transform="translate(15,1)"/>
<path d="M0,0 L1,0 L1,1 L0,1 Z " fill="#4E4E4E" transform="translate(14,1)"/>
<path d="M0,0 L1,0 L1,1 L0,1 Z " fill="#505050" transform="translate(12,1)"/>
<path d="M0,0 L1,0 L1,1 L0,1 Z " fill="#575757" transform="translate(7,1)"/>
<path d="M0,0 L1,0 L1,1 L0,1 Z " fill="#515151" transform="translate(6,1)"/>
<path d="M0,0 L1,0 L1,1 L0,1 Z " fill="#1C1C1C" transform="translate(3,1)"/>
<path d="M0,0 L1,0 L1,1 L0,1 Z " fill="#000000" opacity="0.7529412" transform="translate(2,1)"/>
<path d="M0,0 L1,0 L1,1 L0,1 Z " fill="#000000" opacity="0.039215688" transform="translate(1,1)"/>
<path d="M0,0 L1,0 L1,1 L0,1 Z " fill="#000000" opacity="0.12156863" transform="translate(17,0)"/>
<path d="M0,0 L1,0 L1,1 L0,1 Z " fill="#000000" opacity="0.5764706" transform="translate(16,0)"/>
<path d="M0,0 L1,0 L1,1 L0,1 Z " fill="#000000" opacity="0.6862745" transform="translate(15,0)"/>
<path d="M0,0 L1,0 L1,1 L0,1 Z " fill="#000000" opacity="0.77254903" transform="translate(12,0)"/>
<path d="M0,0 L1,0 L1,1 L0,1 Z " fill="#000000" opacity="0.7921569" transform="translate(11,0)"/>
<path d="M0,0 L1,0 L1,1 L0,1 Z " fill="#000000" opacity="0.7921569" transform="translate(8,0)"/>
<path d="M0,0 L1,0 L1,1 L0,1 Z " fill="#000000" opacity="0.7411765" transform="translate(6,0)"/>
<path d="M0,0 L1,0 L1,1 L0,1 Z " fill="#000000" opacity="0.6784314" transform="translate(4,0)"/>
<path d="M0,0 L1,0 L1,1 L0,1 Z " fill="#000000" opacity="0.06666667" transform="translate(2,0)"/>
</svg>
